<?xml version="1.0" encoding="UTF-8"?> <svg xmlns="http://www.w3.org/2000/svg" version="1.1" id="Layer_1" x="0" y="0" viewBox="0 0 600 300" xml:space="preserve"><style>.st0{fill-rule:evenodd;clip-rule:evenodd;fill:#ffcd53}.st3{fill:#044d80}</style><path id="B" class="st0" d="M80.5 185.2L93 224.8h41.7l-33.4 25 12.5 39.6-33.4-25-33.4 25 12.5-39.6-33.4-25h41.7l12.7-39.6z"></path><path id="B_1_" class="st0" d="M190 185.2l12.5 39.6h41.7l-33.4 25 12.5 39.6-33.4-25-33.4 25 12.5-39.6-33.4-25h41.7l12.7-39.6z"></path><path id="B_3_" class="st0" d="M410 185.2l12.5 39.6h41.7l-33.4 25 12.5 39.6-33.4-25-33.4 25 12.5-39.6-33.4-25h41.7l12.7-39.6z"></path><path id="B_2_" class="st0" d="M300.5 185.2l12.5 39.6h41.7l-33.4 25 12.5 39.6-33.4-25-33.4 25 12.5-39.6-33.4-25h41.7l12.7-39.6z"></path><path id="B_4_" class="st0" d="M519.5 185.2l12.5 39.6h41.7l-33.4 25 12.5 39.6-33.4-25-33.4 25 12.5-39.6-33.4-25h41.7l12.7-39.6z"></path><g><path d="M2.5 61.3H90.3V28.4L2.5 61.3z" fill="#ff9d28"></path><path d="M90.3 28.4v116.2l41.5-131.7-41.5 15.5z" fill="#68c5ed"></path><path class="st3" d="M90.3 61.3H57.1l33.2 83.2V61.3z"></path><path d="M2.5 61.3l63.2 21.4-8.5-21.4H2.5z" fill="#e54747"></path><path class="st3" d="M203.8 113.9c-.5.5-1.3 1.1-2.4 1.8-1.1.7-2.6 1.5-4.4 2.2-1.8.7-4 1.4-6.7 1.9-2.6.5-5.6.8-8.9.8-6.5 0-12.1-1.1-16.9-3.1-4.8-2.1-8.6-5-11.7-8.7-3.1-3.8-5.4-8.1-6.8-13.2-1.5-5.1-2.2-10.7-2.2-16.8s.8-11.7 2.4-16.9c1.6-5.2 3.9-9.6 7.1-13.4 3.1-3.8 7.1-6.8 11.7-8.8 4.7-2.1 10.2-3.2 16.6-3.2 3.1 0 6 .3 8.4.8 2.5.6 4.8 1.2 6.7 2 1.9.8 3.5 1.6 4.7 2.4 1.3.8 2.2 1.6 2.8 2.1.7.6 1.4 1.4 1.9 2.3.5.9.8 1.9.8 2.9 0 1.6-.6 3.2-1.8 4.8-1.2 1.6-2.5 3.1-4 4.5-1-1-2.1-2-3.3-3-1.2-1-2.6-1.9-4.1-2.7-1.5-.8-3.2-1.4-5.1-1.9-1.9-.5-4-.8-6.4-.8-4.1 0-7.6.8-10.3 2.5s-5 3.8-6.7 6.5c-1.7 2.7-2.9 5.7-3.6 9-.7 3.4-1.1 6.9-1.1 10.4 0 3.8.4 7.4 1.1 10.8.7 3.5 2 6.5 3.8 9.1 1.8 2.7 4.1 4.8 7 6.4 2.9 1.6 6.4 2.4 10.6 2.4 2.3 0 4.3-.3 6.2-.8 1.9-.6 3.6-1.3 5-2.1 1.5-.8 2.7-1.7 3.8-2.5 1.1-.9 2-1.7 2.7-2.3.5.6 1 1.3 1.7 2.1s1.3 1.7 1.8 2.5c.6.9 1 1.8 1.5 2.7.4.9.6 1.7.6 2.4 0 1.1-.2 1.9-.6 2.7-.5.5-1.1 1.3-1.9 2.2zm61.9-9.2c0 6.4.9 11 2.8 13.9-1.5.6-2.8 1-4.1 1.2-1.3.2-2.6.4-4 .4-2.9 0-5.1-.6-6.6-1.7s-2.5-2.8-2.9-4.9c-1.8 1.9-4.1 3.5-7.1 4.8-2.9 1.3-6.5 1.9-10.6 1.9-2.2 0-4.4-.3-6.6-.9-2.2-.6-4.2-1.6-6-3-1.8-1.4-3.2-3.2-4.4-5.5-1.1-2.3-1.7-5.1-1.7-8.3 0-4.1 1-7.5 3-10 2-2.6 4.5-4.6 7.5-6.1s6.3-2.5 9.6-3.1c3.5-.6 6.7-.9 9.5-1.1 1-.1 1.9-.1 2.9-.1h2.6V80c0-3.1-.8-5.3-2.5-6.7-1.7-1.3-4.4-2-8-2-3.5 0-6.6.6-9.2 1.7s-5.4 2.4-7.9 3.9c-1.1-1.4-2.1-2.9-2.7-4.6-.7-1.7-1-2.9-1-3.7 0-1.1.6-2.2 1.9-3.3 1.3-1.1 3-2 5.2-2.9 2.2-.9 4.7-1.5 7.6-2.1 2.8-.5 5.8-.8 8.9-.8 4.4 0 8 .4 11 1.3s5.5 2.3 7.4 4.1c1.9 1.9 3.3 4.2 4.1 7 .8 2.8 1.2 6.1 1.2 9.7l.1 23.1zm-15.4-14h-1.7c-.6 0-1.1 0-1.7.1-2 .2-4 .4-6 .7-2 .3-3.8.9-5.3 1.7-1.5.8-2.8 1.9-3.8 3.2-1 1.3-1.5 3-1.5 5 0 2.3.6 4.2 1.9 5.8 1.3 1.6 3.5 2.4 6.6 2.4 1.5 0 3-.2 4.4-.6 1.4-.4 2.6-.9 3.7-1.6 1.1-.7 1.9-1.4 2.5-2.1.6-.8.9-1.5.9-2.1V90.7zm45.5-23.9c1.3-1.5 3.3-3.1 6.1-4.7s6.2-2.4 10.3-2.4c3 0 5.9.5 8.5 1.5s5.1 2.7 7.2 4.9c2.1 2.3 3.8 5.3 5 8.9 1.3 3.7 1.9 8.2 1.9 13.7 0 6.3-.7 11.5-2.2 15.6s-3.3 7.4-5.6 9.6c-2.3 2.4-4.9 4.1-7.6 5.1-2.8 1-5.7 1.5-8.4 1.5-2.3 0-4.4-.3-6.1-.8-1.7-.5-3.2-1.1-4.4-1.8-1.2-.6-2.1-1.3-2.8-1.9-.6-.6-1.1-1.1-1.2-1.3v29.8H280V61.6c.4-.1.9-.2 1.5-.2.5-.1 1.1-.1 1.7-.2.7 0 1.4-.1 2.3-.1 2.7 0 5 .4 6.9 1.3 1.8.8 3 2.3 3.4 4.4zm21.9 22.4c0-2.4-.2-4.7-.6-6.8-.4-2.1-1.1-3.9-2-5.5-.9-1.5-2.2-2.7-3.8-3.6-1.6-.9-3.5-1.3-5.8-1.3-3.4 0-5.8.7-7.1 1.9-1.3 1.3-2 2.7-2 4.3V104c.6.7 1.8 1.4 3.5 2.3 1.7.9 3.6 1.3 5.8 1.3 4.1 0 7.1-1.6 9-4.9 2-3.2 3-7.7 3-13.5zm29.8 20.8c-.6-1.6-.9-3.3-1.1-5.1-.2-1.8-.2-3.6-.2-5.4v-56c.6-.1 1.2-.2 1.8-.2.6-.1 1.2-.1 1.8-.2.6 0 1.3-.1 1.9-.1 1.3 0 2.6.1 3.9.4 1.3.2 2.5.7 3.5 1.5 1.1.7 1.9 1.7 2.6 3 .6 1.3 1 2.9 1 4.9v8.6h17v12.2h-16.9v25.8c0 5.7 2.3 8.4 6.9 8.4 1.1 0 2.2-.2 3.2-.5 1-.4 1.9-.8 2.7-1.2.8-.4 1.5-.9 2.1-1.4.6-.5 1-.9 1.3-1.1 1.2 1.8 2.2 3.3 2.8 4.6.6 1.3 1 2.5 1 3.7 0 1.1-.4 2.1-1.3 3.1s-2.1 2-3.6 2.8c-1.5.9-3.4 1.6-5.6 2.1-2.2.5-4.6.8-7.2.8-5 0-8.9-1-11.7-2.9-2.7-2.1-4.7-4.6-5.9-7.8zm73.8-1.6c2 0 3.8-.2 5.4-.7 1.5-.4 2.9-1 4.2-1.6 1.2-.6 2.3-1.4 3.2-2.1.9-.8 1.7-1.5 2.4-2.1 1 1.2 2 2.8 3.1 4.7 1.1 1.9 1.6 3.5 1.6 4.7 0 1.8-1 3.4-3 4.9-1.7 1.3-4.1 2.4-7.3 3.4-3.1.9-6.8 1.4-10.9 1.4-3.8 0-7.6-.5-11.2-1.5-3.7-1-7-2.7-9.8-5.1-2.9-2.4-5.2-5.7-7-9.7-1.8-4.1-2.7-9.2-2.7-15.4 0-5.1.8-9.4 2.4-13.1 1.6-3.7 3.7-6.8 6.3-9.1 2.6-2.4 5.6-4.2 8.9-5.4 3.3-1.1 6.7-1.7 10.1-1.7 4.5 0 8.3.7 11.5 2.1 3.2 1.4 5.7 3.3 7.6 5.7 2 2.4 3.4 5.1 4.3 8.1s1.3 6.3 1.3 9.6v1.7c0 .7 0 1.3-.1 2.1 0 .7-.1 1.4-.1 2.1s-.1 1.2-.2 1.6h-35.7c.3 4.5 1.7 8.1 4.2 11.1 2.4 2.9 6.3 4.3 11.5 4.3zm5.6-24.5c0-3.9-.8-7.1-2.3-9.4s-4.2-3.7-8-3.7c-3.4 0-6 1.2-7.9 3.5-2 2.3-3 5.5-3 9.6h21.2zm43.5-16.8c.5-.7 1.1-1.5 1.9-2.4s1.8-1.7 3-2.4 2.5-1.3 3.9-1.8 2.9-.7 4.6-.7c1 0 2 .1 3.1.2 1.1.2 2.1.5 3 .9.9.4 1.7 1 2.3 1.8.6.8.9 1.7.9 2.8 0 1.8-.4 3.8-1.3 6.1s-1.8 4.3-2.7 5.9c-1.4-1.1-2.8-2-4.1-2.6-1.4-.6-3-.9-4.9-.9-2.5 0-4.6.7-6.3 2.2-1.7 1.5-2.6 3.2-2.6 5.3v39.1h-16.5V61.5c.4-.1.9-.2 1.5-.2.5-.1 1.1-.1 1.7-.2.6 0 1.4-.1 2.3-.1 2.6 0 4.9.5 6.8 1.5 1.7 1 2.9 2.5 3.4 4.6zm46.8 0c.5-.7 1.1-1.5 1.9-2.4.8-.9 1.8-1.7 3-2.4s2.5-1.3 3.9-1.8 2.9-.7 4.6-.7c1 0 2 .1 3.1.2 1.1.2 2.1.5 3 .9.9.4 1.7 1 2.3 1.8.6.8.9 1.7.9 2.8 0 1.8-.4 3.8-1.3 6.1s-1.8 4.3-2.7 5.9c-1.4-1.1-2.8-2-4.1-2.6-1.4-.6-3-.9-4.9-.9-2.5 0-4.6.7-6.3 2.2-1.7 1.5-2.6 3.2-2.6 5.3v39.1h-16.5V61.5c.4-.1.9-.2 1.5-.2.5-.1 1.1-.1 1.7-.2.6 0 1.4-.1 2.3-.1 2.6 0 4.9.5 6.8 1.5 1.7 1 2.9 2.5 3.4 4.6zm78.6 37.6c0 6.4.9 11 2.8 13.9-1.5.6-2.8 1-4.1 1.2-1.3.2-2.6.4-4 .4-2.9 0-5.1-.6-6.6-1.7s-2.5-2.8-2.9-4.9c-1.8 1.9-4.1 3.5-7.1 4.8-2.9 1.3-6.5 1.9-10.6 1.9-2.2 0-4.4-.3-6.6-.9-2.2-.6-4.2-1.6-6-3-1.8-1.4-3.2-3.2-4.4-5.5-1.1-2.3-1.7-5.1-1.7-8.3 0-4.1 1-7.5 3-10 2-2.6 4.5-4.6 7.5-6.1s6.3-2.5 9.6-3.1c3.5-.6 6.7-.9 9.5-1.1 1-.1 1.9-.1 2.9-.1h2.6V80c0-3.1-.8-5.3-2.5-6.7-1.7-1.3-4.4-2-8-2-3.5 0-6.6.6-9.2 1.7-2.7 1.1-5.4 2.4-7.9 3.9-1.1-1.4-2.1-2.9-2.7-4.6-.7-1.7-1-2.9-1-3.7 0-1.1.6-2.2 1.9-3.3 1.3-1.1 3-2 5.2-2.9 2.2-.9 4.7-1.5 7.6-2.1 2.8-.5 5.8-.8 8.9-.8 4.4 0 8 .4 11 1.3s5.5 2.3 7.4 4.1c1.9 1.9 3.3 4.2 4.1 7 .8 2.8 1.2 6.1 1.2 9.7l.1 23.1zm-15.5-14h-1.7c-.6 0-1.1 0-1.7.1-2 .2-4 .4-6 .7-2 .3-3.8.9-5.3 1.7-1.5.8-2.8 1.9-3.8 3.2-1 1.3-1.5 3-1.5 5 0 2.3.6 4.2 1.9 5.8 1.3 1.6 3.5 2.4 6.6 2.4 1.5 0 3-.2 4.4-.6 1.4-.4 2.6-.9 3.7-1.6s1.9-1.4 2.5-2.1c.6-.8.9-1.5.9-2.1V90.7z"></path></g></svg> 