<?xml version="1.0" encoding="UTF-8"?> <svg xmlns="http://www.w3.org/2000/svg" version="1.1" id="Layer_1" x="0" y="0" viewBox="0 0 600 300" xml:space="preserve"><style>.st0{fill-rule:evenodd;clip-rule:evenodd;fill:#ffcd53}.st2{fill:#fff;stroke:#ff492c}</style><path id="B" class="st0" d="M80.5 185.2L93 224.8h41.7l-33.4 25 12.5 39.6-33.4-25-33.4 25 12.5-39.6-33.4-25h41.7l12.7-39.6z"></path><path id="B_1_" class="st0" d="M190 185.2l12.5 39.6h41.7l-33.4 25 12.5 39.6-33.4-25-33.4 25 12.5-39.6-33.4-25h41.7l12.7-39.6z"></path><path id="B_3_" class="st0" d="M410 185.2l12.5 39.6h41.7l-33.4 25 12.5 39.6-33.4-25-33.4 25 12.5-39.6-33.4-25h41.7l12.7-39.6z"></path><path id="B_2_" class="st0" d="M300.5 185.2l12.5 39.6h41.7l-33.4 25 12.5 39.6-33.4-25-33.4 25 12.5-39.6-33.4-25h41.7l12.7-39.6z"></path><path id="B_4_" class="st0" d="M519.5 185.2l12.5 39.6h41.7l-33.4 25 12.5 39.6-33.4-25-33.4 25 12.5-39.6-33.4-25h41.7l12.7-39.6z"></path><path fill-rule="evenodd" clip-rule="evenodd" fill="#ff492c" stroke="#ff492c" d="M0 6.1h600v160.8H0z"></path><g><path class="st2" d="M343.9 63.1h-17.1c.5-2.7 2.1-4.2 5.5-5.9l3.2-1.6c5.6-2.9 8.6-6.2 8.6-11.5 0-3.4-1.3-6-3.9-7.9-2.5-1.9-5.6-2.8-9.2-2.8-2.8 0-5.4.7-7.8 2.2-2.3 1.4-4.1 3.3-5.2 5.6l5 5c1.9-3.9 4.7-5.8 8.4-5.8 3.1 0 5 1.6 5 3.8 0 1.9-.9 3.4-4.5 5.2l-2 1c-4.4 2.2-7.4 4.8-9.2 7.7-1.8 2.8-2.6 6.5-2.6 10.9v1.2H344v-7.1h-.1zm-2.3 15.2h-28.4L299 102.9h28.4l14.2 24.6 14.2-24.6-14.2-24.6z"></path><path class="st2" d="M301.5 119.2c-18.1 0-32.7-14.7-32.7-32.7 0-18.1 14.7-32.7 32.7-32.7l11.2-23.5c-3.7-.7-7.4-1.1-11.2-1.1-31.6 0-57.3 25.7-57.3 57.3 0 31.6 25.7 57.3 57.3 57.3 12.6 0 24.3-4.1 33.7-11l-12.4-21.5c-5.7 5-13.1 7.9-21.3 7.9z"></path></g></svg> 