<svg version="1.1" id="Logo" xmlns="http://www.w3.org/2000/svg" x="0" y="0" width="500" height="110" xml:space="preserve"><style>.st0{fill:#ff4a00}</style><g id="Woorise"><path id="W" class="st0" d="M113.9 0c-10.1 0-13.3 6.3-13.7 9.2v66.4c0 7.9-3.6 15.9-15.4 15.9-8 0-15.1-6-15.1-15.9V19.5s-2.8-1-5.8-.9c-10 0-13.3 6.2-13.7 9.1v47.8c0 7.1-4.7 15.9-15.6 15.9-8.7 0-14.9-6.7-14.9-15.9V38.1s-2.7-.9-5.8-.9C2.9 37.2 0 45.7 0 48v27.6c0 9.5 3.4 17.6 10.2 24.3C17 106.6 25.1 110 34.5 110s21.5-5.8 25.3-10.3c3.4 4.2 15.6 10.3 25 10.3s17.6-3.4 24.5-10.2c6.9-6.8 10.4-14.9 10.4-24.3V.9c.1 0-2.7-.9-5.8-.9z"/><path id="o" class="st0" d="M164.8 110c-9.8 0-18.8-3.2-25.5-10.3-6.8-7.1-9.5-16.1-9.5-26 0-9.9 2.8-19.1 9.7-26.3 6.8-7.2 15.6-10.2 25.2-10.2s18.4 3.1 25.1 10.4c6.7 7.3 9.5 16.5 9.5 26.5s-3.2 18.7-9.7 25.6c-6.7 7-15 10.3-24.8 10.3zm-13.7-51.7c-3.7 3.8-5.1 9.1-5.1 15.2 0 6 1.7 11.2 5.1 15.4 3.7 3.6 8.2 5.4 13.4 5.4 5.2 0 9.7-1.8 13.4-5.4 3.7-4.3 5.6-9.4 5.6-15.4s-1.9-11.1-5.6-15.2c-4.1-3.7-8.6-5.5-13.4-5.5-4.8 0-9.6 1.6-13.4 5.5z"/><path id="o_2_" class="st0" d="M244.1 110c-9.8 0-18.8-3.2-25.5-10.3-6.8-7.1-9.5-16.1-9.5-26 0-9.9 2.8-19.1 9.7-26.3 6.8-7.2 15.6-10.2 25.2-10.2s18.4 3.1 25.1 10.4c6.7 7.3 9.5 16.5 9.5 26.5s-3.2 18.7-9.7 25.6c-6.7 7-15 10.3-24.8 10.3zm-13.7-51.7c-3.7 3.8-5.1 9.1-5.1 15.2 0 6 1.7 11.2 5.1 15.4 3.7 3.6 8.2 5.4 13.4 5.4 5.2 0 9.7-1.8 13.4-5.4 3.7-4.3 5.6-9.4 5.6-15.4s-1.9-11.1-5.6-15.2c-4.1-3.7-8.6-5.5-13.4-5.5-4.8 0-9.6 1.6-13.4 5.5z"/><path id="r" class="st0" d="M304.9 45.8c2.2-2.6 5.5-5 9.4-6.6 4.1-1.6 6.5-1.6 8.1-1.6 2.6 0 4.7.6 6.1 1.8 1.6 1.3 2.6 3.7 2.6 6.1 0 1.6-.5 3.1-2.2 4.5-1.2 1-3.9 1.8-7.5 3.1-4 1.4-8.4 3.9-12 7-2.1 1.8-4.2 5.4-4.5 8.3-.1.6-.2 2.2-.1 4.2v29.7c0 2.1-.8 4-2.3 5.5-1.5 1.5-3.4 2.3-5.6 2.3-2.4 0-4.3-.9-5.9-2.7-1.2-1.4-1.9-3.2-1.9-5.1V44.9c0-2.1.7-3.9 2.3-5.4 1.5-1.5 3.3-2.2 5.5-2.2 2.4 0 4.4.6 6 2.4 1.2 1.4 2 3.3 2 5.2v.9z"/><g id="i"><path id="XMLID_34_" class="st0" d="M350.1 37.2c-2.2 0-4.1.8-5.6 2.3-1.5 1.5-2.3 3.4-2.3 5.8v56.9c0 2.1.8 4 2.3 5.5 1.5 1.6 3.4 2.3 5.6 2.3s4-.8 5.5-2.3c1.5-1.5 2.3-3.4 2.3-5.6V45.2c0-2.3-.8-4.3-2.3-5.8-1.4-1.4-3.3-2.2-5.5-2.2z"/><path id="XMLID_33_" class="st0" d="M350.1 27.3c4.5 0 8.1-3.6 8.1-8.1s-3.6-8.1-8.1-8.1-8.1 3.6-8.1 8.1 3.6 8.1 8.1 8.1z"/></g><path id="s" class="st0" d="M417.5 45.2c1.8 2 2.6 3.4 3.1 6 .4 2.1-.2 4.3-1.5 6-1.3 1.7-3 2.8-5.1 3.1-2.1.3-3.9 0-5.7-1.4-5.1-4-7.1-5-10.5-5.9-3.8-1-7.4-.5-9.4.6-1.6.9-3.1 2.9-3.4 4.4-.5 2.1.3 3.4 1.5 4.4 2 1.6 8.5 2.8 11.2 3.7 5 1.6 8.7 2.4 12.8 4.6 4.1 2.2 6.7 4.8 8.5 8.3 1.8 3.5 2.6 6.9 2.4 10.2-.4 6.8-3.3 12.1-9.7 16.2-5.9 3.5-12.3 5-19.2 4.5-9-.7-14.4-3.5-20.2-9.2-1.5-1.4-2.2-3.1-2.3-5.3-.1-2.2.6-4.1 2-5.6 1.4-1.6 3.2-2.8 5.5-2.9 2.2 0 4 .8 5.5 2.1 3.7 3.2 8.5 5.3 12.2 5.5 3.5.2 6.2 0 8.7-2.3 2.2-2 2.1-4.3.7-6.5-2-3.1-9.2-4.2-12.2-5.1-5-1.5-9.4-3-13.1-5.1-3.7-2.1-6.3-5.2-8.4-8.8-1.5-2.8-2.1-5.9-1.9-9.3.4-6.3 3.6-12.1 9.6-16.1 5.3-3.5 11.8-4.4 18.7-4.1 7 .3 15.5 2.9 20.2 8z"/><path id="e" class="st0" d="M497.8 77.8c-1.4 1.3-3.3 2-5.6 2h-46.3c.7 3.2 3.8 7.9 6.2 9.8 2.9 2.2 6.2 4.8 12.6 4.8 5.9 0 10.9-1.8 13.9-3.7 4-2.5 6.2-2.9 8.4-2.5 2.5.5 4.3 1.9 5.4 3.4 1.6 2.2 1.9 5.4-.4 8.4-4.8 6.2-16.6 10.1-26.7 10-10.1 0-18.8-3.2-25.6-10.3-6.8-7.1-10.1-16-10.2-26.1.1-10 3.9-19.3 10.7-26.4s14.7-10 24.4-10 17.8 3.2 24.5 9.5C495.8 53.1 500 62.2 500 71c0 2.4-.8 5.5-2.2 6.8zm-32.9-25c-5.2-.1-10.2 2-13.3 5-3.1 3-5 6.3-5.6 9.7h37.9c-.8-3.2-2.8-6.9-6.3-10-3.6-3-7.3-4.6-12.7-4.7z"/></g></svg>