<?xml version="1.0" encoding="utf-8"?>
<!-- Generator: Adobe Illustrator 22.1.0, SVG Export Plug-In . SVG Version: 6.00 Build 0)  -->
<svg version="1.1" id="Layer_1" xmlns="http://www.w3.org/2000/svg" xmlns:xlink="http://www.w3.org/1999/xlink" x="0px" y="0px"
	 viewBox="0 0 187.1 32.3" style="enable-background:new 0 0 187.1 32.3;" xml:space="preserve">
<style type="text/css">
	.st0{fill-rule:evenodd;clip-rule:evenodd;fill:#222222;}
	.st1{fill-rule:evenodd;clip-rule:evenodd;}
</style>
<g>
	<polygon class="st0" points="18,3.9 0,3.9 0,9.3 6.1,9.3 6.1,27.1 12.2,27.1 12.2,9.3 18,9.3 18,3.9 	"/>
	<path class="st0" d="M35,9.3h-5.7v9.6c0,3.2-1.8,4-3,4c-1.8,0-2.8-0.8-2.8-3.2V9.3H18v10.7c0,4.7,1.4,7.6,6.4,7.6
		c1.9,0,4.2-1.1,5.1-2.9h0.1v2.5H35V9.3L35,9.3z"/>
	<path class="st0" d="M45.8,13.2c2.5,0,3.3,2.6,3.3,4.8c0,2.4-0.8,5.1-3.3,5.1c-2.5,0-3.3-2.1-3.3-5.1
		C42.5,14.3,44.3,13.2,45.8,13.2L45.8,13.2z M37.1,32.3h5.5v-7.1l0,0c1.2,1.5,2.8,2.4,5,2.4c4.8,0,7.2-4.3,7.2-9
		c0-5-2.4-9.8-7.6-9.8c-2.1,0-3.7,1-4.7,2.6h-0.1V9.3h-5.3V32.3L37.1,32.3z"/>
	<path class="st0" d="M64.8,13.2c2.5,0,3.3,2.6,3.3,4.8c0,2.4-0.8,5.1-3.3,5.1c-2.6,0-3.5-2.1-3.5-5.1
		C61.3,14.3,63.3,13.2,64.8,13.2L64.8,13.2z M55.9,32.3h5.7v-7.1l0,0c1.1,1.5,2.8,2.4,4.8,2.4c4.8,0,7.2-4.3,7.2-9
		c0-5-2.2-9.8-7.6-9.8c-1.9,0-3.6,1-4.7,2.6l0,0V9.3h-5.4V32.3L55.9,32.3z"/>
	<path class="st0" d="M80.3,16.3c0.3-2.2,1.7-3.6,3.6-3.6c1.9,0,3.3,1.7,3.3,3.6H80.3L80.3,16.3z M92.9,19.7
		c0.3-6.1-2.9-10.9-9-10.9c-5,0-9.1,4-9.1,9.4c0,6,3.7,9.4,9.3,9.4c3.9,0,7.5-1.8,8.6-5.8h-5.3c-0.6,1.2-1.9,1.9-3.2,1.9
		c-2.4,0-3.7-1.7-3.9-4H92.9L92.9,19.7z"/>
	<path class="st0" d="M94.2,27.1h5.5v-8.6c0-2.2,1.4-4.2,4.2-4.2c0.8,0,1.7,0,1.7,0V9.1C105.1,9,105.1,9,104.7,9
		c-2.4,0-4.3,1.1-5.1,3.5l0,0V9.3h-5.4V27.1L94.2,27.1z"/>
	<polygon class="st0" points="133.8,9.3 128,9.3 125.2,20.8 125.2,20.8 122.7,9.3 117.3,9.3 114.9,20.8 114.8,20.8 112,9.3 
		106.4,9.3 111.6,27.1 117.3,27.1 119.9,15.2 120.1,15.2 122.7,27.1 128.4,27.1 133.8,9.3 	"/>
	<path class="st0" d="M138.3,22c0-1.5,1.1-2.1,2.4-2.4c1.2-0.3,2.6-0.4,3.5-1c0.1,3.7-0.8,5.3-3.5,5.3C139.4,24,138.3,23.4,138.3,22
		L138.3,22z M138.8,14.8c0.3-1.5,1.2-2.2,2.8-2.2c1.1,0,2.6,0.4,2.6,1.8c0,1.1-0.4,1.4-1.4,1.7c-3.9,0.8-10,0.3-10,6.1
		c0,3.7,2.5,5.4,5.8,5.4c2.1,0,4.2-0.6,5.7-2.2c0,0.7,0,1.8,0,1.8h5.3c0,0,0-3.2,0-4.6v-7.9c0-5-3.9-6-8-6c-1.9,0-3.9,0.4-5.4,1.2
		c-1.5,1-2.5,2.5-2.6,4.8H138.8L138.8,14.8z"/>
	<path class="st0" d="M168.7,16.3c0.4-2.2,1.7-3.6,3.7-3.6c1.8,0,3.2,1.7,3.3,3.6H168.7L168.7,16.3z M181.3,19.7
		c0.3-6.1-2.8-10.9-8.9-10.9c-5.1,0-9.3,4-9.3,9.4c0,6,3.7,9.4,9.4,9.4c3.7,0,7.5-1.8,8.4-5.8h-5.3c-0.6,1.2-1.8,1.9-3.2,1.9
		c-2.4,0-3.7-1.7-3.9-4H181.3L181.3,19.7z"/>
	<path class="st0" d="M151.6,27.1h5.5v-8.4c0-2.2,1.4-4.3,4.2-4.3c0.8,0,1.8,0,1.8,0V9.1c-0.6-0.1-0.6-0.1-1-0.1
		c-2.4,0-4.3,1.1-5.1,3.5l0,0V9.3h-5.4V27.1L151.6,27.1z"/>
	<path class="st0" d="M180.7,7.1h0.7V5h0.8l1.2,2.1h0.8l-1.4-2.2c0.7,0,1.2-0.4,1.2-1.2c0-0.8-0.6-1.4-1.7-1.4h-1.8V7.1L180.7,7.1z
		 M181.4,2.9h1c0.6,0,1,0,1,0.7c0,0.7-0.6,0.7-1.1,0.7h-0.8V2.9L181.4,2.9z"/>
	<path class="st1" d="M177.8,4.6c0-2.5,2.1-4.6,4.6-4.6c2.6,0,4.7,2.1,4.7,4.6c0,2.6-2.1,4.7-4.7,4.7C179.9,9.3,177.8,7.2,177.8,4.6
		L177.8,4.6z M182.4,8.7c2.2,0,4-1.9,4-4.2c0-2.2-1.8-4-4-4c-2.2,0-4,1.8-4,4C178.4,6.8,180.2,8.7,182.4,8.7L182.4,8.7z"/>
</g>
</svg>
