<?xml version="1.0" encoding="utf-8"?>
<!-- Generator: Adobe Illustrator 22.1.0, SVG Export Plug-In . SVG Version: 6.00 Build 0)  -->
<svg version="1.1" id="Layer_1" xmlns="http://www.w3.org/2000/svg" xmlns:xlink="http://www.w3.org/1999/xlink" x="0px" y="0px"
	 viewBox="0 0 191 54" style="enable-background:new 0 0 191 54;" xml:space="preserve">
<style type="text/css">
	.st0{filter:url(#Adobe_OpacityMaskFilter);}
	.st1{fill:#FFFFFF;}
	.st2{mask:url(#mask-2_1_);}
	.st3{filter:url(#Adobe_OpacityMaskFilter_1_);}
	.st4{mask:url(#mask-4_1_);}
	.st5{filter:url(#Adobe_OpacityMaskFilter_2_);}
	.st6{mask:url(#mask-6_1_);}
</style>
<title>Page 1</title>
<desc>Created with Sketch.</desc>
<g id="Page-1">
	<g>
		<g id="Group-3" transform="translate(0.000000, 7.000000)">
			<g id="Clip-2">
			</g>
			<defs>
				<filter id="Adobe_OpacityMaskFilter" filterUnits="userSpaceOnUse" x="0" y="0.7" width="107.9" height="46.3">
					<feColorMatrix  type="matrix" values="1 0 0 0 0  0 1 0 0 0  0 0 1 0 0  0 0 0 1 0"/>
				</filter>
			</defs>
			<mask maskUnits="userSpaceOnUse" x="0" y="0.7" width="107.9" height="46.3" id="mask-2_1_">
				<g class="st0">
					<polygon id="path-1_1_" class="st1" points="0,0.7 107.9,0.7 107.9,47 0,47 					"/>
				</g>
			</mask>
			<path id="Fill-1" class="st2" d="M0.1,7.6c1-0.4,2.1-0.9,3.1-1.3c2-0.8,4-1.5,6-2.2C9.2,4,9.3,4,9.4,4c0,0.9,0,1.9,0,2.8
				C9.4,6.9,9.3,7,9.2,7C8.9,7.2,8.5,7.3,8.1,7.4C8,7.5,7.8,7.6,7.8,7.8c0,4.4,0,8.7,0,13.1c1.9-5.1,3.8-10.2,5.7-15.4
				c-0.8,0.3-1.5,0.5-2.2,0.8c0-1,0-1.9,0-2.8c0-0.2,0.1-0.3,0.3-0.3c2-0.7,4-1.3,6-2c0.5-0.2,1-0.3,1.5-0.5c0,1,0,1.9,0,2.9
				c0,0.1-0.1,0.2-0.2,0.2c-0.3,0.1-0.7,0.2-1,0.3c-0.4,0.1-0.7,0.4-0.8,0.8c-1.1,3-2.3,6-3.4,9c-0.5,1.3-1,2.6-1.4,3.9
				c-0.1,0.4-0.1,0.8-0.1,1.3c0.1,0.5,0.7,0.8,1.2,0.6c0.7-0.2,1.4-0.5,2.1-0.8c0,0.2,0,0.6-0.1,0.9c-0.1,1.3-0.2,2.6-0.1,3.9
				c0.1,0.7,0.1,1.4,0.2,2c0.2,1.5,0.5,3,1.1,4.5c0.5,1.5,1.3,2.8,2.3,4c0.9,1.2,2.1,2.2,3.4,3c1.8,1.1,3.7,1.8,5.8,2.1
				c0.9,0.2,1.9,0.3,2.9,0.3c0.9,0.1,1.8,0.1,2.8,0.2c0.1,0,0.3,0,0.4-0.1c1.6-0.7,3.2-1.5,4.8-2.2c2.9-1.2,5.8-2.4,8.7-3.6
				c1.8-0.7,3.6-1.3,5.5-1.9c2.1-0.6,4.2-1.2,6.3-1.8c2-0.5,4-0.8,6-1.2c1.3-0.2,2.5-0.4,3.8-0.6c1-0.1,2.1-0.2,3.1-0.3
				c1.3-0.1,2.7-0.2,4-0.3c1.1-0.1,2.1-0.1,3.2-0.2c0.7,0,1.5-0.1,2.2-0.1c1.1,0,2.3,0,3.4,0.2c1.8,0.2,3.7,0.4,5.4,0.8
				c2,0.4,3.9,0.9,5.9,1.5c2.3,0.7,4.5,1.5,6.7,2.6c1.6,0.8,3.3,1.6,4.9,2.5c0,0,0,0.1,0,0.1c-0.3,0-0.5,0.1-0.8,0.1
				c-1.4,0.1-2.8,0.2-4.2,0.3c-1.7,0.2-3.4,0.5-5.1,0.8c-1.8,0.3-3.5,0.9-5.1,1.6c-0.6,0.2-1.1,0.5-1.7,0.7c-0.1,0-0.3,0-0.5-0.1
				c-1.2-0.6-2.3-1.4-3.6-1.9c-1.6-0.8-3.3-1.4-5-1.8c-1.6-0.4-3.2-0.7-4.8-1c-0.8-0.2-1.6-0.2-2.4-0.3c-2.1-0.3-4.3-0.3-6.4-0.2
				c-1.4,0-2.8,0.2-4.2,0.3c-0.8,0.1-1.7,0.1-2.5,0.2c-1.1,0.2-2.2,0.3-3.3,0.6c-1.7,0.3-3.4,0.7-5.1,1.1c-2,0.5-4,1-5.9,1.6
				c-2.8,0.9-5.6,1.9-8.4,3c-1.9,0.7-3.7,1.6-5.5,2.4c-1.4,0.7-2.9,1.3-4.3,2.1c-1.5,0.8-2.9,1.6-4.3,2.3C24.5,47,24.2,47,23.9,47
				c-2.2-0.4-4.2-1.2-6.1-2.6c-1.8-1.4-3.2-3.1-4.2-5c-1.1-2-1.8-4.1-2.3-6.3c-0.3-1.3-0.5-2.6-0.6-3.9c-0.1-1.4-0.2-2.7-0.2-4.1
				c0-0.7,0-1.4-0.1-2.2c-0.2,0.5-0.4,0.9-0.5,1.4c-0.7,1.8-1.4,3.7-2.1,5.5c0,0.1-0.1,0.2-0.1,0.3c0,2.8,0,5.6,0,8.4
				c0,0.1,0,0.1,0,0.2c0.6-0.2,1.1-0.3,1.6-0.5c0,1,0,2,0,3c-0.9,0.3-1.9,0.6-2.9,1c-2.1,0.8-4.1,1.6-6.2,2.4
				c-0.1,0-0.2,0.1-0.3,0.1c0-1,0-2,0-2.9c0.4-0.2,0.7-0.4,1.1-0.5c0.4-0.1,0.4-0.3,0.4-0.6c0-10.1,0.1-20.2,0.1-30.3
				c0-0.1,0-0.3,0-0.5c-0.5,0.3-1,0.5-1.5,0.7C0.1,9.6,0.1,8.6,0.1,7.6"/>
		</g>
		<g id="Group-6" transform="translate(73.000000, 0.000000)">
			<g id="Clip-5">
			</g>
			<defs>
				<filter id="Adobe_OpacityMaskFilter_1_" filterUnits="userSpaceOnUse" x="0.9" y="0.2" width="54.7" height="31.7">
					<feColorMatrix  type="matrix" values="1 0 0 0 0  0 1 0 0 0  0 0 1 0 0  0 0 0 1 0"/>
				</filter>
			</defs>
			<mask maskUnits="userSpaceOnUse" x="0.9" y="0.2" width="54.7" height="31.7" id="mask-4_1_">
				<g class="st3">
					<polygon id="path-3_1_" class="st1" points="0.9,0.2 55.6,0.2 55.6,32 0.9,32 					"/>
				</g>
			</mask>
			<path id="Fill-4" class="st4" d="M8.9,6.5C8.9,6.5,8.8,6.5,8.9,6.5C8.1,11,7.4,15.5,6.6,20c1.4-0.1,2.7-0.1,4-0.2
				C10.1,15.3,9.5,10.9,8.9,6.5 M46,4.3c0,3.5,0,7.1,0,10.6c0.7,0.2,1.3,0.2,2,0c0.3-0.1,0.5-0.3,0.7-0.5c0.4-0.4,0.5-1,0.5-1.5
				c0-1.7,0-3.4,0-5.1c0-0.4,0-0.9-0.1-1.3c-0.1-0.9-0.7-1.6-1.6-1.8C47,4.4,46.5,4.4,46,4.3 M26.5,8.2c0,1.7,0,3.3,0,5
				c0,0.2,0,0.4,0.3,0.4c0.3,0,0.6,0,0.9-0.1c1.4-0.2,2-0.6,2.1-2c0.1-2.1,0.1-4.3,0-6.4c0-0.8-0.3-1.4-1.1-1.8
				c-0.6-0.3-1.1-0.3-1.7-0.4c-0.4,0-0.4,0-0.4,0.4C26.5,4.9,26.5,6.6,26.5,8.2 M46,29c0.7,0,1.5,0.1,2.2,0c0.4,0,0.9-0.3,1.2-0.5
				c0.5-0.4,0.6-1,0.6-1.7c0-1.9,0-3.8,0-5.7c0-1.6-0.7-2.8-2.3-3.3c-0.5-0.2-1.1-0.3-1.7-0.3C46,21.3,46,25.1,46,29 M26.4,27.5
				c0.5,0,1,0.1,1.5,0.1c0,0.9,0,1.7,0,2.6c-6,0-12,0-18,0c0-0.8,0-1.6,0-2.5c0.5,0,1.1-0.1,1.7-0.1c0-0.5-0.1-1-0.1-1.5
				c-0.1-0.9-0.2-1.8-0.4-2.6c0-0.2,0-0.5-0.1-0.7c0-0.1-0.2-0.2-0.3-0.2c-0.9,0-1.8,0.1-2.8,0.1c-0.3,0-0.6,0-1,0
				c-0.8,0-0.8,0-0.9,0.8c-0.2,1.1-0.4,2.2-0.6,3.3c-0.1,0.4-0.1,0.8-0.1,1.2c0.6,0,1.2,0,1.9,0c0,0.8,0,1.7,0,2.6
				c-2.1,0.1-4.2,0.3-6.4,0.4c0-0.9,0-1.7,0-2.6C1.5,28.1,2,28.1,2.7,28C4.2,18.9,5.8,9.8,7.4,0.6c0.2,0,0.4-0.1,0.7-0.1
				c1.4-0.1,2.9-0.1,4.3-0.1c0.7,0,0.7,0,0.8,0.7c0.3,1.8,0.6,3.6,0.9,5.4c0.2,1.5,0.5,3,0.7,4.5c0.2,1.4,0.5,2.8,0.7,4.2
				c0.3,1.7,0.5,3.4,0.8,5.1c0.2,1.5,0.5,3.1,0.8,4.6c0.1,0.7,0.2,1.5,0.3,2.2c0,0.1,0.2,0.2,0.3,0.2c1.1,0,2.1,0,3.2,0
				c0-8.2,0-16.3,0.1-24.4c-0.4,0-0.9,0-1.4,0c0-0.9,0-1.8,0-2.7c0.1,0,0.2,0,0.3,0c1.6,0,3.2,0,4.9,0c1.5,0,3.1,0.1,4.6,0.2
				c1.2,0.1,2.5,0.2,3.6,0.6c1.3,0.5,2,1.4,2.2,2.7c0.2,1,0.2,2,0.2,2.9c0,1.5,0,2.9,0,4.4c0,0.9-0.1,1.8-0.5,2.7
				c-0.5,1.1-1.3,1.6-2.5,1.8c-0.3,0.1-0.6,0.1-0.9,0.1c0.6,0.2,1.2,0.4,1.8,0.6c1.2,0.5,2,1.4,2.2,2.6c0.2,0.7,0.2,1.4,0.2,2.1
				c0,1.9,0,3.8,0,5.7c0,1.2,0.6,1.3,1.4,1.4c0.9,0.1,1.8,0.1,2.8,0.2c0.1,0,0.2,0.1,0.4,0.1c0-8.2,0-16.3,0.1-24.5
				c-0.4,0-0.9-0.1-1.4-0.1c0-0.8,0-1.7,0-2.6c0.6,0,1.2,0,1.8,0.1c0.7,0.1,1.4,0.2,2.1,0.2c1,0.1,2,0.2,3,0.3
				c0.6,0.1,1.2,0.1,1.8,0.2c1.7,0.2,3.4,0.4,5,1.2c1.1,0.6,1.7,1.6,1.9,2.8c0.1,0.7,0.2,1.4,0.2,2.1c0,1.5,0,3.1,0,4.6
				c0,0.7-0.1,1.4-0.5,2.1c-0.5,0.8-1.3,1.3-2.3,1.4c-0.7,0.1-1.3,0.1-2,0.2c0.5,0.1,1,0.2,1.5,0.3c1.1,0.3,2.2,0.7,3.1,1.5
				c0.6,0.7,1,1.5,1,2.4c0.1,2.4,0.1,4.8,0.1,7.2c0,0.9-0.2,1.9-0.8,2.7c-0.4,0.6-1.1,1-1.8,1.2c-1.3,0.3-2.6,0.3-3.9,0.2
				c-0.9-0.1-1.8-0.2-2.7-0.3c-0.8-0.1-1.7-0.2-2.5-0.3c-0.7-0.1-1.3-0.1-2-0.2c-1.3-0.1-2.5-0.2-3.8-0.3c-0.4,0-0.9-0.1-1.3-0.1
				c-1.5-0.1-2.9-0.2-4.4-0.3c-0.3,0-0.6,0-0.9-0.1c-0.1,0-0.2,0-0.2-0.1c-0.8-0.7-1.3-1.5-1.3-2.5c0-2.9,0-5.7-0.1-8.6
				c-0.1-1.9-1-3.1-3.2-3.1c-0.2,0-0.4,0-0.4,0.3c0,3.6,0,7.3,0,10.9C26.4,27.4,26.4,27.4,26.4,27.5"/>
		</g>
		<path id="Fill-7" d="M179.1,30.9c-0.2-0.1-0.3-0.2-0.5-0.2c-0.7-0.3-0.7-0.3-0.7-1c0-0.6,0-1.3,0-2c0.8,0.3,1.5,0.5,2.2,0.8
			c1.2,0.5,2.4,0.9,3.6,1.4c0.2,0.1,0.3,0.2,0.3,0.4c0,6.9,0,13.8-0.1,20.7c0,0,0,0,0,0.1c-1.6-0.6-3.2-1.2-4.9-1.8
			c0-0.6,0-1.3,0-1.9c-0.5,0.3-0.9,0.7-1.4,0.9c-1,0.4-2,0.1-2.9-0.2c-1.5-0.5-2.8-1.3-3.8-2.5c-0.8-1-1.4-2.1-1.6-3.4
			c-0.2-0.9-0.3-1.9-0.3-2.8c0-8,0-16.1,0.1-24.1c0-1.1,0.1-2.2,0.6-3.3c0.6-1.4,2-2,3.5-1.8c1.3,0.2,2.5,0.7,3.6,1.4
			c0.9,0.6,1.8,1.4,2.4,2.3c0.2,0.3,0.5,0.6,0.8,1c0-0.7,0-1.3,0-1.9c0.3,0.1,0.6,0.2,0.8,0.3c1,0.4,2,0.8,3,1.2
			c0.1,0,0.3,0.2,0.3,0.4c0,3.6,0,7.2,0,10.9c-0.5-0.2-1-0.4-1.5-0.6c-0.8-0.3-1.5-0.6-2.3-0.9c-0.2-0.1-0.3-0.2-0.3-0.4
			c0-1.7,0-3.4,0-5.2c0-0.8-0.1-1.6-0.6-2.3c-0.6-0.9-1.3-1.5-2.3-1.7c-1.3-0.2-1.6,0.5-1.7,1.3c-0.1,0.7-0.2,1.3-0.2,2
			c0,8.1-0.1,16.3-0.1,24.4c0,1.1,0.1,2.1,1,2.9c0.6,0.5,1.3,0.9,2.1,0.6c0.4-0.1,0.9-0.7,0.9-1.1c0-4.5,0-9.1,0-13.6
			C179.1,31,179.1,30.9,179.1,30.9"/>
		<path id="Fill-9" d="M156.1,22.2c0.7,0.1,1.4,0.2,2.1,0.2c0.4,0,0.8-0.2,0.9-0.6c0.2-0.5,0.3-1,0.3-1.6c0-1.8,0-3.6,0-5.4
			c0-0.7-0.1-1.4-0.6-1.9c-0.7-0.9-1.7-1.2-2.7-1.6C156.1,14.9,156.1,18.5,156.1,22.2 M149,34.4c0.5,0.1,0.9,0.2,1.4,0.3
			c0-0.2,0-0.3,0-0.5c0-7.9,0-15.8,0.1-23.8c0-0.3,0-0.5-0.5-0.6c-0.3,0-0.6-0.2-1-0.3c0-0.9,0-1.7,0-2.7c0.6,0.1,1.1,0.3,1.6,0.4
			c2.3,0.6,4.6,1.1,6.9,1.8c1.4,0.4,2.8,0.9,4.1,1.5c1.1,0.4,2,1.2,2.5,2.3c0.3,0.7,0.5,1.5,0.6,2.2c0.1,2.2,0.1,4.5,0.1,6.7
			c0,0.7-0.1,1.4-0.3,2c-0.2,1-1,1.7-2.2,1.7c-0.4,0-0.9,0-1.3,0c0.3,0.1,0.6,0.3,1,0.5c1.4,0.8,2.5,1.8,2.9,3.5
			c0.2,0.7,0.3,1.4,0.3,2.2c0,2,0,4.1,0,6.1c0,1.1,0.3,1.5,1.3,1.8c0.3,0.1,0.4,0.2,0.3,0.5c0,0.6,0,1.2,0,1.8c0,0,0,0.1,0,0.1
			c-0.7-0.2-1.4-0.4-2.1-0.6c-1.1-0.3-2.3-0.7-3.4-1.1c-0.3-0.1-0.6-0.3-0.8-0.6c-0.6-0.7-1-1.6-1-2.6c0-2.8,0-5.6-0.1-8.4
			c-0.1-2.1-1.1-3.5-3.3-4.1c-0.1,0-0.2,0-0.3,0c0,3.8,0,7.6,0,11.4c0.5,0.1,0.9,0.3,1.4,0.4c0,0.9,0,1.7,0,2.7
			c-0.5-0.1-1-0.3-1.6-0.4c-2.2-0.5-4.4-1.1-6.6-1.6c-0.2,0-0.3-0.1-0.3-0.3C149,36.1,149,35.3,149,34.4"/>
		<path id="Fill-11" d="M26.1,24.1c0,3.1,0,6.2,0,9.3c0,0.4,0,0.8,0.1,1.2c0.1,0.6,0.3,1.2,1.1,1.4c0.3,0.1,0.7,0,1,0
			c0.8-0.2,1.5-0.5,2-1.3c0.4-0.7,0.5-1.5,0.5-2.3c0-5.8,0-11.6,0.1-17.4c0-0.8,0-1.6-0.1-2.4c0-0.6-0.2-1.1-0.7-1.5
			c-0.4-0.3-0.9-0.2-1.3-0.1c-1,0.2-1.9,0.6-2.2,1.6c-0.2,0.5-0.3,1.1-0.3,1.6C26.1,17.5,26.1,20.8,26.1,24.1 M20,25.8c0-2,0-4,0-6
			c0-1.9,0.3-3.7,1-5.4c0.9-2,2.2-3.6,4.2-4.7c1.5-0.8,3.1-1.3,4.8-1.6c1.4-0.2,2.8-0.2,4.1,0.4c1.4,0.7,2.1,1.8,2.4,3.1
			c0.2,0.9,0.4,1.9,0.4,2.8C37,18.7,37,22.8,37,27c0,1.8-0.2,3.6-0.8,5.4c-0.5,1.4-1.3,2.6-2.5,3.6c-1.4,1.2-3,1.9-4.7,2.4
			c-1.2,0.3-2.5,0.6-3.7,0.6c-1.2,0-2.5-0.3-3.4-1.2c-0.7-0.6-1.1-1.4-1.3-2.3c-0.2-0.8-0.4-1.6-0.4-2.4C20,30.7,20.1,28.3,20,25.8
			C20.1,25.8,20,25.8,20,25.8"/>
		<path id="Fill-13" d="M143.1,17.8c0,1.2,0,2.4,0,3.6c-1.6-0.3-3.1-0.6-4.7-0.9c0,3.8,0,7.5,0,11.3c1.1,0.2,2.3,0.5,3.5,0.7
			c0-2.6,0-5.1,0-7.7c1.4,0.3,2.8,0.6,4.2,0.9c0,3.4,0,6.9,0,10.3c-5-1-10-1.9-15-2.9c0-0.8,0-1.7,0-2.6c0.5,0.1,1,0.2,1.5,0.2
			c0-8.3,0-16.5,0.1-24.8c-0.4-0.1-0.7-0.1-1.1-0.2c-0.2,0-0.4,0-0.4-0.3c0-0.8,0-1.6,0-2.5c4.9,0.8,9.8,1.7,14.6,2.8
			c0,3.1,0,6.2,0,9.3c-1.1-0.2-2.1-0.5-3.2-0.7c-0.5-0.1-0.5-0.3-0.5-0.7c0-1.9,0-3.7,0-5.6c0-0.3,0-0.5-0.4-0.5
			c-1-0.2-2.1-0.4-3.2-0.7c0,0.2,0,0.3,0,0.4c0,3,0,6,0,9c0,0.3,0,0.4,0.4,0.5c1.3,0.2,2.7,0.5,4,0.8
			C142.8,17.7,143,17.8,143.1,17.8"/>
		<path id="Fill-15" d="M65.2,3.9c0,4.1,0,8.2,0,12.3c0.4-0.1,0.7-0.1,1-0.2c0.8-0.2,1.6-0.4,1.9-1.3c0.2-0.6,0.3-1.2,0.3-1.8
			c0-2.4,0-4.9,0-7.3c0-0.9-0.4-1.5-1.3-1.7C66.5,3.8,65.9,3.9,65.2,3.9 M59.5,4.8C59,4.9,58.6,5,58.1,5c0-0.9,0-1.7,0-2.6
			c0.5-0.1,1-0.2,1.5-0.2c0.9-0.1,1.8-0.3,2.6-0.4c0.7-0.1,1.5-0.2,2.2-0.2c0.8-0.1,1.6-0.2,2.5-0.3c1.2-0.1,2.5-0.3,3.7-0.2
			c1.6,0.1,2.7,0.7,3.1,2.3C73.9,3.8,74,4.2,74,4.6c0,2.9,0,5.7,0,8.6c0,0.8-0.2,1.6-0.5,2.3c-0.4,1.1-1.3,1.8-2.4,2.1
			c-1,0.3-2,0.5-3,0.6c-1,0.2-2,0.2-3,0.3c0,3.3,0,6.5,0,9.8c0.4-0.1,0.9-0.1,1.3-0.2c0,0.9,0,1.7,0,2.6c-2.8,0.4-5.6,0.7-8.4,1.1
			c0-0.8,0-1.6,0-2.4c0-0.1,0.2-0.2,0.3-0.2c0.4-0.1,0.7-0.1,1.1-0.2C59.5,21,59.5,13,59.5,4.8"/>
		<path id="Fill-17" d="M46.1,19.7c0.6-0.2,1.2-0.3,1.7-0.5c0.8-0.3,1.4-0.8,1.5-1.7c0.1-0.6,0.2-1.2,0.2-1.9c0-2.3,0-4.6-0.1-6.9
			c0-0.7-0.5-1.4-1.2-1.5c-0.6-0.1-1.2,0-1.8,0.1c-0.3,0-0.3,0.2-0.3,0.5c0,3.8,0,7.7,0,11.5C46.1,19.4,46.1,19.5,46.1,19.7
			 M47.4,31.6c0,0.9,0,1.8,0,2.6c-2.8,0.6-5.6,1.2-8.4,1.7c0-0.8,0-1.7,0-2.6c0.3-0.1,0.6-0.2,1-0.2c0.4,0,0.4-0.2,0.4-0.5
			c0-4.6,0-9.2,0-13.8c0-3.2,0-6.4,0-9.6c0-0.1,0-0.3,0-0.5C40,8.8,39.5,8.9,39.1,9c0-0.9,0-1.7,0-2.6c1.4-0.3,2.9-0.6,4.3-0.9
			c1-0.2,1.9-0.4,2.9-0.6c1.2-0.2,2.4-0.5,3.6-0.7C50.5,4.1,51.1,4,51.8,4c0.8,0,1.6,0.2,2.2,0.8c0.6,0.5,0.9,1.2,0.9,1.9
			C55,7.8,55,8.9,55,10c0,1.9,0,3.8,0,5.6c0,1-0.2,2-0.6,3c-0.4,0.8-1,1.4-1.8,1.8c-1.1,0.6-2.2,0.9-3.4,1.1c-1,0.2-1.9,0.3-2.9,0.5
			c-0.1,0-0.3,0.2-0.3,0.3c0,3.2,0,6.3,0,9.5c0,0,0,0,0.1,0.1C46.5,31.8,47,31.7,47.4,31.6"/>
		<g id="Group-21" transform="translate(185.000000, 10.000000)">
			<g id="Clip-20">
			</g>
			<defs>
				<filter id="Adobe_OpacityMaskFilter_2_" filterUnits="userSpaceOnUse" x="0.9" y="0" width="5" height="5">
					<feColorMatrix  type="matrix" values="1 0 0 0 0  0 1 0 0 0  0 0 1 0 0  0 0 0 1 0"/>
				</filter>
			</defs>
			<mask maskUnits="userSpaceOnUse" x="0.9" y="0" width="5" height="5" id="mask-6_1_">
				<g class="st5">
					<polygon id="path-5_1_" class="st1" points="0.9,0 5.9,0 5.9,5.1 0.9,5.1 					"/>
				</g>
			</mask>
			<path id="Fill-19" class="st6" d="M3.6,2.4C3.9,2.4,4,2.3,4,2c0-0.2-0.2-0.4-0.4-0.4l-0.7,0l0,0.8L3.6,2.4z M2.5,1.4
				c0-0.1,0.1-0.1,0.1-0.1l1,0c0.4,0,0.9,0.3,0.9,0.8c0,0.5-0.4,0.7-0.6,0.8c0.1,0.3,0.3,0.6,0.4,0.8c0,0.1,0,0.2-0.1,0.2L4,3.8
				c-0.1,0-0.1-0.1-0.1-0.1L3.5,2.8l-0.5,0l0,0.8c0,0.1-0.1,0.1-0.1,0.1l-0.2,0c-0.1,0-0.1-0.1-0.1-0.1L2.5,1.4z M3.4,4.6
				c1.2,0,2.1-0.9,2.1-2.1c0-1.2-0.9-2.1-2.1-2.1c-1.2,0-2.1,0.9-2.1,2.1C1.3,3.7,2.2,4.6,3.4,4.6z M3.4,0c1.4,0,2.5,1.1,2.5,2.5
				c0,1.4-1.1,2.5-2.5,2.5C2,5,0.9,3.9,0.9,2.5C0.9,1.2,2,0,3.4,0z"/>
		</g>
	</g>
</g>
</svg>
