<?xml version="1.0" encoding="utf-8"?>
<!-- Generator: Adobe Illustrator 22.1.0, SVG Export Plug-In . SVG Version: 6.00 Build 0)  -->
<svg version="1.1" id="Layer_1" xmlns="http://www.w3.org/2000/svg" xmlns:xlink="http://www.w3.org/1999/xlink" x="0px" y="0px"
	 viewBox="0 0 361.3 359.3" style="enable-background:new 0 0 361.3 359.3;" xml:space="preserve">
<style type="text/css">
	.st0{fill:#010202;}
</style>
<g>
	<line class="st0" x1="280.4" y1="347.9" x2="280.4" y2="359.3"/>
	<polyline class="st0" points="289.2,346.4 293,356.3 293,356.3 	"/>
	<path class="st0" d="M198.8,78.1L198.8,78.1c-1.6-0.3-9.3-1.6-18.2-1.6c-8.9,0-16.6,1.3-18.1,1.6c-0.9,0.1-1.3-0.7-0.6-1.2
		c0.6-0.5,18.7-14.3,18.7-14.3s18.2,13.8,18.7,14.3C200.1,77.3,199.7,78.2,198.8,78.1z M167.5,167.4L167.5,167.4c0,0-1,0.4-1.2,1.2
		c3.8,2.9,6.4,9.6,14.3,9.6c7.9,0,10.6-6.6,14.4-9.6c-0.3-0.9-1.2-1.2-1.2-1.2s-5,1.2-13.2,1.2C172.5,168.6,167.5,167.4,167.5,167.4
		z M180.6,156.3L180.6,156.3c-2.2,0-2.6-0.8-4.1-0.8c-1.4,0-4.2,1.1-4.9,2.1c0.1,0.6,0.3,1,0.6,1.4c3.2,0.5,4.6,2.3,8.4,2.3
		c3.7,0,5.1-1.8,8.4-2.3c0.4-0.4,0.6-0.9,0.6-1.4c-0.6-1-3.4-2.1-4.8-2.1C183.3,155.5,182.8,156.3,180.6,156.3z M361.1,190.4
		L361.1,190.4c-0.2,4.4-0.6,8.6-1.1,12.9c-20.4,3.4-27.8-14.8-48.7-13.9c1.2,4.4,2.3,9,3,13.6c17.3-0.1,24.3,16.1,43.5,13.7
		c-1,4.9-2.2,9.8-3.6,14.6c-15.2,1.5-20.6-13.6-38.2-13.2c0.1,2.5,0.2,5,0.2,7.6c0,1.4,0,2.9-0.1,4.2c15-0.1,19.9,13.7,34.2,13.1
		c-1.7,4.9-3.7,9.6-5.9,14.2c-10.3-0.5-13.8-13.7-29.4-12.6c-0.5,3.3-1.1,6.7-1.8,10c13.6-0.9,16.5,11.6,26.2,12.6
		c-2.5,4.5-5.1,8.9-8,13.1c-5.7-3.1-10.7-12.3-21.6-12.9c1.1-3.4,2.1-7,2.9-10.5c-9.7,0-20.8-3.8-30.1-12.3
		c3-17.1-23.6-34.5-23.6-47.1c0-13.6,6.9-21.1,6.9-39.5c0-13.6-6.6-28.4-16.6-38.5c-1.9-2-3.9-3.6-6.2-5
		c9.2,11.3,16.2,24.8,16.2,40.4c0,17.3-8,26.4-8,42.4c0,15.9,23.4,29.8,23.4,46.2c0,6.5-2.1,12.9-8.9,25.3
		c10.5,10.5,24.1,16.2,33,16.2c2.9,0,4.4-0.9,5.4-3.1c0.9-1.9,1.7-3.9,2.5-5.8c9.5,0.4,13.9,9,19.1,12.4c-2.9,3.9-5.9,7.6-9.1,11.2
		c-3.5-3.9-8.3-10.4-15.2-12.3c-1.2,2.4-2.5,4.8-3.9,7.1c6,1.6,10.1,7.6,13.2,11.6c-3.4,3.6-6.9,6.9-10.6,10.1
		c-2.3-3.6-5.9-8.1-9.9-10.6c-1.4,2-3,4-4.6,5.9c3.4,2.3,6.4,6.4,8.4,9.8c-4.2,3.4-8.6,6.6-13.2,9.7c-2.3-18.3-27.3-30.9-20.6-52.2
		c-2.2,3.7-4.9,8.4-4.9,14.1c0,15.4,16.4,27.6,17.7,43c-3.4,2-6.9,3.9-10.4,5.7c-0.6-16.8-17.9-35.2-17.9-49
		c0-15.4,20.2-30.9,20.2-49.1c0-18.1-23.4-30.8-23.4-46.7c0-16,9.9-25.2,9.9-45.6c0-15-7.1-30.2-18.1-39.9c-1.9-1.7-3.9-3.1-6.1-4.3
		c10.4,12.4,16.4,23.8,16.4,40.9c0,19.3-11.4,29.9-11.4,48.7c0,18.8,22.9,29.3,22.9,46.9c0,17.6-21.3,32.4-21.3,50.5
		c0,16.4,18.8,32.8,19.1,52.3c-4.1,1.8-8.3,3.4-12.6,4.9c2.4-19.7-18.7-40-18.7-56.1c0-17.6,22.1-32.6,22.1-51.6
		c0-18.9-22.4-27.7-22.4-47.2c0-19.4,13.8-30.2,13.8-51.6c0-16.8-8.3-31.8-20.4-41.1c-0.3-0.2-0.5-0.4-0.8-0.6
		c-1.1-0.8-2.1,0.2-1.2,1.2c8.5,10.6,13.1,21.5,13.1,37.4c0,19.7-15.8,35.6-15.8,54.7c0,22.4,21.2,28.8,21.2,47.2
		c0,18.5-22.8,33.2-22.8,52.7c0,18.1,21.6,38.2,17.9,59.2c-4.3,1.1-8.7,2.1-13.1,2.9c4.1-26-17.1-44.8-17.1-61.8
		c0-18.5,23.6-35,23.6-53c0-17-16.9-22.5-19.2-40c-0.3-2.4-2.2-4.1-4.9-3.7c-3.4,0.6-7.9,2.9-14.8,2.9c-6.9,0-11.3-2.3-14.8-2.9
		c-2.6-0.4-4.5,1.3-4.9,3.7c-2.2,17.4-19.1,23-19.1,40c0,18.1,23.6,34.5,23.6,53c0,17-21.2,35.8-17.2,61.8
		c-4.4-0.8-8.9-1.8-13.1-2.9c-3.7-21,17.9-41.1,17.9-59.2c0-19.5-22.8-34.3-22.8-52.7c0-18.4,21.3-24.8,21.3-47.2
		c0-19.1-15.9-35-15.9-54.7c0-15.9,4.6-26.8,13.1-37.4c0.8-1-0.1-2-1.3-1.2c-0.3,0.2-0.5,0.4-0.8,0.6c-12.1,9.3-20.4,24.3-20.4,41.1
		c0,21.4,13.8,32.2,13.8,51.6c0,19.5-22.4,28.3-22.4,47.2c0,19,22.1,34,22.1,51.6c0,16.1-21.2,36.4-18.7,56.1
		c-4.3-1.5-8.4-3.1-12.6-4.9c0.3-19.5,19.1-35.9,19.1-52.3c0-18.1-21.3-32.8-21.3-50.5c0-17.5,22.9-28,22.9-46.9
		c0-18.8-11.4-29.5-11.4-48.7c0-17.1,6-28.5,16.4-40.9c-2.4,1.2-4.2,2.6-6.2,4.3c-11,9.7-18.2,24.9-18.2,39.9
		c0,20.4,9.9,29.6,9.9,45.6c0,16-23.3,28.6-23.3,46.7c0,18.2,20.2,33.7,20.2,49.1c0,13.8-17.4,32.3-18,49c-3.6-1.8-7-3.7-10.4-5.7
		c1.3-15.3,17.7-27.5,17.7-43c0-5.6-2.6-10.3-4.9-14.1c6.8,21.3-18.3,33.8-20.6,52.2c-4.5-3.1-8.9-6.3-13.2-9.7c2-3.4,5-7.6,8.4-9.8
		c-1.6-1.9-3.1-3.9-4.6-5.9c-4,2.4-7.6,7-9.9,10.6c-3.6-3.2-7.2-6.6-10.6-10.1c3.1-3.9,7.3-10,13.2-11.6c-1.4-2.4-2.7-4.7-3.9-7.1
		c-6.9,1.9-11.6,8.3-15.2,12.3c-3.1-3.6-6.2-7.4-9.1-11.2c5.3-3.4,9.6-12.1,19.1-12.4c0.8,1.9,1.6,3.9,2.5,5.8
		c1,2.2,2.5,3.1,5.4,3.1c8.8,0,22.4-5.7,32.9-16.2c-6.8-12.4-8.9-18.8-8.9-25.3c0-16.4,23.4-30.2,23.4-46.2c0-16-8.1-25.1-8.1-42.4
		c0-15.6,7.1-29,16.2-40.4c-2.3,1.4-4.3,3-6.2,5c-9.9,10.1-16.6,24.9-16.6,38.5c0,18.4,6.9,25.9,6.9,39.5c0,12.6-26.6,30-23.6,47.1
		c-9.3,8.5-20.4,12.3-30.1,12.3c0.9,3.5,1.9,7.1,2.9,10.5c-10.9,0.6-15.9,9.9-21.6,12.9c-2.9-4.2-5.5-8.6-8-13.1
		c9.7-1,12.6-13.5,26.2-12.6c-0.7-3.3-1.3-6.6-1.8-10c-15.6-1.1-19.1,12.1-29.4,12.6c-2.1-4.6-4.1-9.3-5.9-14.2
		c14.3,0.6,19.1-13.2,34.2-13.1c-0.1-1.4-0.1-2.8-0.1-4.2c0-2.6,0.1-5.1,0.2-7.6c-17.6-0.4-22.9,14.7-38.2,13.2
		c-1.4-4.8-2.6-9.7-3.6-14.6c19.2,2.4,26.2-13.8,43.5-13.7c0.8-4.6,1.8-9.2,3.1-13.6c-21-0.9-28.3,17.3-48.7,13.9
		c-0.6-4.2-0.9-8.5-1.1-12.9c23.7,2.7,32.6-16.8,54.3-14.4c2.1-5.2,4.4-10.2,7.1-15c-27.1-4.8-36.4,17.9-61.6,14.4
		C2.7,78.1,82.5,0,180.6,0s177.9,78.1,180.7,175.4c-25.3,3.5-34.5-19.2-61.7-14.4c2.6,4.8,5.1,9.8,7.1,15
		C328.4,173.5,337.3,193.1,361.1,190.4z M103,114.7L103,114.7c-13.3-5.4-29.4-4.2-43.2,4.6c-2.1-12.8-9.1-24.2-19-31
		c-1.4-0.9-2.8,0-2.6,1.6C40.2,117,24.4,140.4,5,161c20,6,37.1-19.8,63.1-10.8C77.4,136.4,89.2,124.3,103,114.7z M180.6,98.4
		L180.6,98.4c-16.8,0-30.8,9.4-34.5,21.7c-0.3,0.9,0.1,1.6,1.2,1.1c3-1.4,6.4-2,10.2-2c6.9,0,12.9,2.5,16.4,6.8
		c1.6,5.2,1.7,12.7-0.1,17.1c-2.8-0.6-3.8-2.9-6.6-2.9c-2.7,0-4.9,1.9-9.5,1.9c-4.7,0-5.2-2.1-8.3-2.1c-3.6,0-4.3,3.7-4.3,7.9
		c0,18.7,17.2,44.4,35.4,44.4c18.3,0,35.4-25.7,35.4-44.4c0-4.1-0.9-7.8-4.6-8.3c-1.9,1.4-3.6,2.6-7.9,2.6c-4.7,0-6-1.9-8.7-1.9
		c-3.3,0-3,7-6.9,7.4c-2.6-6.3-2.8-14.4-0.6-21.6c3.6-4.3,9.6-6.8,16.4-6.8c3.7,0,7.2,0.6,10.2,2c1.1,0.5,1.4-0.1,1.1-1.1
		C211.5,107.8,197.4,98.4,180.6,98.4z M207.3,125.2L207.3,125.2c-4,0-8.7,1.2-11.7,4.6c-0.3,0.9-0.3,2.2,0.1,3.1
		c7.3-2.5,13.7-2.6,16.9,0.9c1.6-1.5,2.1-2.9,2.1-4.4C214.8,126.9,212.3,125.2,207.3,125.2z M148.7,133.7L148.7,133.7
		c3.5-3.6,10.9-3.4,18.6-0.6c0.3-3.8-6.6-8-13.4-8c-4.9,0-7.4,1.7-7.4,4.1C146.5,130.9,147,132.2,148.7,133.7z M264.3,70.5
		L264.3,70.5c-13.2,0.9-24.8,5.5-34.1,13.1c4-11.2,9-21,15.4-30.5c-16.9,1.8-31,7.9-41.3,18.5l-8-21.1l17.9-15.8L190.2,33l-9.6-22.3
		L171,33l-23.9,1.6L165,50.4L157,71.6c-10.3-10.6-24.4-16.7-41.2-18.5c6.3,9.5,11.4,19.3,15.3,30.5C121.7,76,110.2,71.4,97,70.5
		c8,10.2,15,21.1,20.2,32.8c0.6,1.4,1.9,1.8,3.2,1.1c18.2-9,38.6-14.1,60.2-14.1c21.6,0,42.1,5.1,60.2,14.1c1.4,0.7,2.6,0.3,3.2-1.1
		C249.3,91.5,256.4,80.7,264.3,70.5z M293.2,150.2L293.2,150.2c25.9-9,43,16.8,63.1,10.8c-19.4-20.6-35.3-44-33.1-71.1
		c0.1-1.6-1.4-2.5-2.7-1.6c-9.9,6.9-16.8,18.3-18.9,31c-13.8-8.9-29.9-10.1-43.2-4.6C272,124.3,283.9,136.4,293.2,150.2z"/>
	<polygon class="st0" points="280.4,359.3 280.4,359.3 278.6,359.3 278.6,347.9 274.4,347.9 274.4,346.4 284.6,346.4 284.6,347.9 
		280.4,347.9 	"/>
	<polygon class="st0" points="293,356.3 293,356.3 296.9,346.4 299.7,346.4 299.7,359.3 297.9,359.3 297.9,348.5 293.5,359.3 
		292.4,359.3 288.1,348.5 288.1,359.3 286.3,359.3 286.3,346.4 289.2,346.4 	"/>
</g>
</svg>
