<svg xmlns="http://www.w3.org/2000/svg" width="413.4" height="73.3" viewBox="0 0 413.4 73.3"><path d="M165.3 26.4c-7.3 0-10.7 5.4-10.7 10.5 0 5.2 3.2 10.3 10.7 10.3 2.7 0 5.6-1.1 7.7-3l3.2 3c-3 2.9-6.9 4.3-10.9 4.3-10.5 0-15.2-7.1-15.2-14.6S155 22 165.3 22c3.9 0 7.6 1.4 10.6 4.3l-3.1 3c-2-2-4.8-2.9-7.5-2.9zm13.6 24.5V22.4h4.7v24.2h15.2v4.3h-19.9zm37.7.6c-10.1 0-14.9-7.2-14.9-14.7 0-8.7 6.2-14.9 14.9-14.9 10 0 14.8 7.1 14.8 14.9 0 7.7-4.8 14.7-14.8 14.7zm.1-25.4c-6.7 0-10.3 4.6-10.3 10.8.1 5 3.1 10.4 10.3 10.4 7.2 0 10.2-5 10.2-10.4-.1-5.2-3.2-10.7-10.2-10.8zm29.8 25.3c-6.5-.2-11.9-4.2-11.9-12.3V22.5h4.6v16.6c0 5.2 3.1 7.9 7.3 8.1 4.6.3 8-2.7 8-8.1V22.5h4.6v16.6c0 8.5-5.7 12.6-12.6 12.3zm27.9-.5h-11V22.4h11c9.9 0 14.4 6.9 14.5 13.9.2 7.3-4.4 14.6-14.5 14.6zm0-24.1H268v19.8h6.4c7 0 10.1-5.1 10-10.2-.1-4.8-3.1-9.6-10-9.6zM322.7 51h-4.1l-3.9-10.1-3.1-9.5-3.2 9.6-3.8 10h-4l-10.5-28.4h5.2l7.3 21.9 7.5-21.9h3l7.6 21.9 7.2-21.9h5.2L322.7 51zm35.6 0l-2.8-6h-15.7l-2.7 6h-4.9l13-28.4h5.1l13 28.4h-5zm-10.6-23.8l-6.1 13.6h12.2l-6.1-13.6zm28.3 12v11.6h-4.6V39.2l-11.2-16.6v-.2h5.5l7.9 12.6 8.3-12.6h5.6v.2L376 39.2zm25.4-13.5c-3.9 0-6.7 1.6-6.7 4.3 0 2.8 3.2 3.5 7 4.1 5.9.8 11.7 2.4 11.7 8.8s-5.9 8.8-12 8.8c-5.6 0-9.8-1.7-12.4-6.5l3.5-2.3c2.1 3.4 5.6 4.7 9 4.7 3.5 0 7.3-1.1 7.3-4.7 0-3-3.4-4.2-7.4-4.7-5.7-.7-11.2-2.2-11.2-8.3 0-5.9 5.9-8.1 11.2-8.1 4.1 0 8.4 1 10.8 4.8l-3.7 2.3c-1.4-2-4.1-3.2-7.1-3.2zM93.3 58.4c-16.4 0-29.7-13.1-29.7-29.2S76.9 0 93.3 0 123 13.1 123 29.2s-13.3 29.2-29.7 29.2zm21.8 14.8c-14.3 0-25.9-11.4-25.9-25.4 0-14 11.6-25.4 25.9-25.4 14.3 0 25.9 11.4 25.9 25.4 0 14.1-11.6 25.4-25.9 25.4zm-43.3 0C57.6 73.2 46 61.9 46 47.8c0-14 11.6-25.4 25.9-25.4 14.3 0 25.9 11.4 25.9 25.4-.1 14.1-11.7 25.4-26 25.4zm0 .1V53.1H115v20.2H71.8zM29.6 57.8H4.5c-1.1 0-2-.8-2-1.9V53c0-1.1.8-1.9 2-1.9h25c1.1 0 2 .8 2 1.9v2.9c.1 1-.8 1.9-1.9 1.9zm37.9 0h-25c-1.1 0-2-.8-2-1.9V53c0-1.1.8-1.9 2-1.9h25c1.1 0 2 .8 2 1.9v2.9c0 1-.9 1.9-2 1.9zm26.8 15.5H24.9c-1.9 0-3.5-1.6-3.5-3.4 0-1.8 1.6-3.4 3.5-3.4h69.4c1.9 0 3.5 1.6 3.5 3.4 0 1.9-1.6 3.4-3.5 3.4zm-21.4-31H3.5c-1.9 0-3.5-1.6-3.5-3.4 0-1.9 1.6-3.4 3.5-3.4h69.4c1.9 0 3.5 1.6 3.5 3.4 0 1.8-1.6 3.4-3.5 3.4zm18.6-15.5H22.1c-1.9 0-3.5-1.6-3.5-3.4s1.6-3.4 3.5-3.4h69.4c1.9 0 3.5 1.6 3.5 3.4s-1.5 3.4-3.5 3.4zm6.7-15.5H28.8c-1.9 0-3.5-1.6-3.5-3.4 0-1.8 1.6-3.4 3.5-3.4h69.4c1.9 0 3.5 1.6 3.5 3.4 0 1.8-1.6 3.4-3.5 3.4z"/></svg>