<?xml version="1.0" encoding="utf-8"?>
<!-- Generator: Adobe Illustrator 22.1.0, SVG Export Plug-In . SVG Version: 6.00 Build 0)  -->
<svg version="1.1" id="Layer_1" xmlns="http://www.w3.org/2000/svg" xmlns:xlink="http://www.w3.org/1999/xlink" x="0px" y="0px"
	 viewBox="0 0 283.5 53.2" style="enable-background:new 0 0 283.5 53.2;" xml:space="preserve">
<style type="text/css">
	.st0{fill:#231F20;}
</style>
<g>
	<path class="st0" d="M220.6,48.3h62.9v0.6h-62.9V48.3z M3,48.3h67.7v0.6H3V48.3z"/>
	<path class="st0" d="M89.8,48.3c1.9,0.4,2.8,1.1,2.8,2.5c0,1.5-1.2,2.5-2.9,2.5c-1.4,0-2.5-0.5-3.5-1.4l0.6-0.7
		c0.9,0.8,1.8,1.2,3,1.2c1.2,0,1.9-0.6,1.9-1.5c0-0.8-0.4-1.3-2.2-1.7c-2-0.4-2.9-1.1-2.9-2.5c0-1.4,1.2-2.4,2.8-2.4
		c1.3,0,2.2,0.4,3,1.1l-0.6,0.8c-0.8-0.7-1.6-0.9-2.5-0.9c-1.1,0-1.8,0.6-1.8,1.4C87.4,47.4,87.9,47.9,89.8,48.3 M110.6,44.4h0.8
		l2.4,7.2l2.5-7.2h1l-3.1,8.7h-0.8l-2.4-7l-2.4,7h-0.8l-3.1-8.7h1.1l2.5,7.2L110.6,44.4z M136.6,45.3h-5.3v3h4.7v0.9h-4.7v3h5.3V53
		h-6.3v-8.6h6.2V45.3z M154.9,53h-3v-8.6h3c2.7,0,4.6,1.9,4.6,4.3C159.5,51.1,157.6,53,154.9,53 M154.9,45.3h-2v6.8h2
		c2.2,0,3.6-1.5,3.6-3.4S157.1,45.3,154.9,45.3 M180.7,45.3h-5.3v3h4.7v0.9h-4.7v3h5.3V53h-6.3v-8.6h6.2V45.3z M203.1,44.4h0.9V53
		h-0.8l-5.6-7.1V53h-1v-8.6h0.9l5.4,6.9V44.4z"/>
	<path class="st0" d="M91.6,33.6h-4.5V3.8h4.5V33.6z M113.2,33.6h-4.5V3.8h21.8V8h-17.3v9h15.5v4.2h-15.5V33.6z M165.1,33.6h-20.6
		V3.8h4.5v25.6h16.1V33.6z M230.3,25.8l-9.5-14.2v22.1h-2.2h-2.2V3.8h4.2l10.1,15.1l10.1-15.1h4.2v29.8h-2.2h-2.2V11.5l-9.5,14.2
		l-0.4,0.6L230.3,25.8z M283.5,33.6h-22.1V3.8h21.9V8h-17.5v8.5h15.6v4.2h-15.6v8.8h17.7V33.6z M73.2,33.6h-5.7l-8.1-11.1h-7.3v11.1
		h-4.5V3.8h12.9c6.7,0,11,3.6,11,9.2c0,4.4-2.8,7.6-7.4,8.8L73.2,33.6z M52.2,18.3h8.2c4.1,0,6.7-2.1,6.7-5.3c0-3.2-2.4-5.1-6.7-5.1
		h-8.2V18.3z M73.2,33.6h-5.7l-8.1-11.1h-7.3v11.1h-4.5V3.8h12.9c6.7,0,11,3.6,11,9.2c0,4.4-2.8,7.6-7.4,8.8L73.2,33.6z M52.2,18.3
		h8.2c4.1,0,6.7-2.1,6.7-5.3c0-3.2-2.4-5.1-6.7-5.1h-8.2V18.3z M73.2,33.6h-5.7l-8.1-11.1h-7.3v11.1h-4.5V3.8h12.9
		c6.7,0,11,3.6,11,9.2c0,4.4-2.8,7.6-7.4,8.8L73.2,33.6z M52.2,18.3h8.2c4.1,0,6.7-2.1,6.7-5.3c0-3.2-2.4-5.1-6.7-5.1h-8.2V18.3z
		 M73.2,33.6h-5.7l-8.1-11.1h-7.3v11.1h-4.5V3.8h12.9c6.7,0,11,3.6,11,9.2c0,4.4-2.8,7.6-7.4,8.8L73.2,33.6z M52.2,18.3h8.2
		c4.1,0,6.7-2.1,6.7-5.3c0-3.2-2.4-5.1-6.7-5.1h-8.2V18.3z M200,33.6h4.9l-13.6-30h-3.8l-13.6,30h4.7l3.4-7.7h14.6L200,33.6z
		 M183.8,21.9l5.6-12.8l5.6,12.8H183.8z M34.3,16.9c0,9.5-7.7,17.2-17.2,17.2C7.7,34.1,0,26.4,0,16.9C0,8.4,6.2,1.4,14.3,0l0,0.1
		C8,2.6,4.2,8.6,4.2,15.5c0,8.9,6.3,14,13,14c7,0,12.6-5.7,12.6-12.6c0-6-4.7-11-10.9-11c-7.1,0-10.5,6.5-10.5,6.5l-0.1,0
		c0,0,3.2-9.3,12.5-9.3C26.5,3.1,34.3,7.8,34.3,16.9"/>
</g>
</svg>
